<svg width="660" height="651" viewBox="0 0 660 651" fill="none" xmlns="http://www.w3.org/2000/svg">
  <g id="83c7d6c5">
    <g id="9f8c9c0b">
      <path id="851b95dc" opacity="0.2" d="M330 119.002L112.947 277.196L195.853 533.155H464.147L547.053 277.196L330 119.002Z" stroke="black" stroke-width="15"></path>
    </g>
    <g id="f809f1a2" clip-path="url(#4f2cc466)">
      <path id="ee5bad77" d="M560 391C615.228 391 660 343.542 660 285C660 226.458 615.228 179 560 179C504.772 179 460 226.458 460 285C460 343.542 504.772 391 560 391Z" fill="#4865F4"></path>
      <path id="29f24220" d="M560 354C601.421 354 635 320.421 635 279C635 237.579 601.421 204 560 204C518.579 204 485 237.579 485 279C485 320.421 518.579 354 560 354Z" fill="#C4C4C4"></path>
      <path id="e2a94a95" d="M560 362C601.421 362 635 328.421 635 287C635 245.579 601.421 212 560 212C518.579 212 485 245.579 485 287C485 328.421 518.579 362 560 362Z" fill="white"></path>
      <path id="6d03473b" d="M560 366.5C608.325 366.5 647.5 327.325 647.5 279C647.5 230.675 608.325 191.5 560 191.5C511.675 191.5 472.5 230.675 472.5 279C472.5 327.325 511.675 366.5 560 366.5Z" stroke="#5671F5" stroke-width="25"></path>
      <path id="ad91cc0f" d="M587.742 257.239C587.271 257.053 586.765 256.972 586.259 257C585.573 257.048 585.02 257.326 584.691 257.782C582.76 260.488 581.176 265.596 579.9 269.702C579.315 271.6 578.528 274.14 577.959 275.346C577.366 271.968 578.036 259.594 578.296 254.828L578.3 254.751C578.481 251.441 578.505 250.859 578.466 250.604C578.18 248.788 577.451 247.596 576.3 247.063C575.137 246.521 573.627 246.762 571.999 247.74C571.184 248.233 570.957 249.926 570.258 257.596L570.255 257.63C569.87 261.844 568.982 271.548 567.889 273.165C566.658 270.903 564.962 258.057 564.23 252.496C563.719 248.602 563.42 246.366 563.219 245.691C562.797 244.276 561.015 243.072 559.251 243.005C557.782 242.933 556.578 243.679 556.003 244.976C554.926 246.173 555.307 250.141 556.496 259.539C557.062 264.014 558.23 273.252 557.496 274.289C556.028 274.129 553.51 268.342 550.012 257.082C549.03 253.929 548.726 252.981 548.425 252.566C547.831 251.119 545.81 250.004 543.999 250.13C543.847 250.141 543.695 250.16 543.545 250.189C542.598 250.377 540.434 251.249 540.896 255.275C542.173 260.855 543.561 264.951 544.907 268.928L544.935 269.008C545.74 271.39 546.503 273.641 547.211 276.138C548.878 282.034 548.229 285.693 548.222 285.735C548.167 286.11 548.05 286.34 547.875 286.421C547.801 286.453 547.721 286.471 547.64 286.475C547.111 286.511 546.318 286.162 545.91 285.933C544.976 284.15 540.328 275.652 536.116 274.472L535.964 274.428L535.811 274.442C534.267 274.588 533.131 275.171 532.436 276.176C531.336 277.765 531.792 279.789 531.902 280.196L531.964 280.34C531.998 280.401 535.377 286.555 535.899 289.418C536.35 291.873 538.682 294.533 540.558 296.67L540.635 296.758C541.247 297.456 541.774 298.061 542.191 298.621C547.632 304.292 556.236 309.062 556.306 309.102C557.38 309.893 557.976 310.658 558.04 311.316C558.069 311.565 558 311.816 557.847 312.014L557.661 312.209L558.85 313.365L581.551 311.771L582.519 307.338C585.512 294.82 584.887 284.146 584.877 284.077C584.889 283.683 585.727 279.885 586.401 276.817L586.421 276.738C587.766 270.625 589.438 263.02 589.759 260.128C589.899 258.891 589.107 257.755 587.742 257.239Z" fill="#3B4262"></path>
    </g>
    <g id="9a3ebd1b" clip-path="url(#304f10d9)">
      <path id="2d034546" d="M330 212C385.228 212 430 164.542 430 106C430 47.4578 385.228 0 330 0C274.772 0 230 47.4578 230 106C230 164.542 274.772 212 330 212Z" fill="#EC9E0E"></path>
      <path id="7621504c" d="M330 175C371.421 175 405 141.421 405 100C405 58.5786 371.421 25 330 25C288.579 25 255 58.5786 255 100C255 141.421 288.579 175 330 175Z" fill="#C4C4C4"></path>
      <path id="f01b9e5a" d="M330 183C371.421 183 405 149.421 405 108C405 66.5786 371.421 33 330 33C288.579 33 255 66.5786 255 108C255 149.421 288.579 183 330 183Z" fill="white"></path>
      <path id="f8bb5854" d="M330 187.5C378.325 187.5 417.5 148.325 417.5 100C417.5 51.6751 378.325 12.5 330 12.5C281.675 12.5 242.5 51.6751 242.5 100C242.5 148.325 281.675 187.5 330 187.5Z" stroke="#ECA922" stroke-width="25"></path>
      <path id="72cabf73" d="M315.984 96.0197L323.293 85.8636C320.255 85.3628 314.676 85.2517 310.108 89.7679C302.905 96.8874 299.987 112.266 299.379 115.989L317.685 134.083C320.981 133.803 335.571 131.878 349.632 117.983C349.78 117.682 353.206 115.182 350.405 112.414C349.068 111.093 346.857 111.118 345.491 112.467C344.796 113.155 343.715 113.164 343.035 112.491C342.354 111.819 342.364 110.75 343.059 110.063L348.027 105.152C350.551 102.658 348.172 98.4479 344.648 99.4593L340.581 102.9C339.839 103.54 338.733 103.43 338.123 102.731C337.492 102.011 337.627 100.917 338.346 100.302C352.553 87.9817 350.478 89.465 359.62 80.9974C363.035 78.1866 358.739 73.2166 355.374 76.0612L333.26 95.7155C332.617 96.2562 331.631 96.2671 330.999 95.6914C330.269 95.0674 330.252 94.1683 330.729 93.4586L346.153 69.76C348.407 66.7428 343.971 63.3912 341.595 66.4326L318.791 97.9567C318.242 98.7412 317.133 98.9222 316.378 98.3731C316.194 98.2464 316.037 98.0842 315.917 97.8962C315.798 97.7083 315.717 97.4983 315.68 97.2788C315.644 97.0594 315.652 96.8348 315.704 96.6185C315.757 96.4022 315.852 96.1986 315.986 96.0197H315.984Z" fill="#3B4262"></path>
    </g>
    <g id="7c2cdb6a" clip-path="url(#3a943fb5)">
      <path id="69aba9cd" d="M488 651C543.228 651 588 603.542 588 545C588 486.458 543.228 439 488 439C432.772 439 388 486.458 388 545C388 603.542 432.772 651 488 651Z" fill="#DC2E4E"></path>
      <path id="0b4f4c5c" d="M488 614C529.421 614 563 580.421 563 539C563 497.579 529.421 464 488 464C446.579 464 413 497.579 413 539C413 580.421 446.579 614 488 614Z" fill="#C4C4C4"></path>
      <path id="c38d20db" d="M488 622C529.421 622 563 588.421 563 547C563 505.579 529.421 472 488 472C446.579 472 413 505.579 413 547C413 588.421 446.579 622 488 622Z" fill="white"></path>
      <path id="568b4899" d="M488 626.5C536.325 626.5 575.5 587.325 575.5 539C575.5 490.675 536.325 451.5 488 451.5C439.675 451.5 400.5 490.675 400.5 539C400.5 587.325 439.675 626.5 488 626.5Z" stroke="#DD405D" stroke-width="25"></path>
      <path id="1633af9e" d="M513.448 524.766C512.672 514.983 501.686 515.983 501.686 515.983C497.049 507.808 489.805 513.729 489.805 513.729C484.24 505.718 477.263 513.142 477.263 513.142C465.231 511.844 465.698 521.68 465.698 521.68C465.415 524.807 467.393 534.48 467.393 534.48C465.608 528.904 461.738 533.532 461.738 533.532C456.977 540.877 460.56 544.897 460.56 544.897C467 552.444 480.725 561.503 480.725 561.503C485.694 564.35 483.592 566.888 483.592 566.888L513.651 561.922L514.34 556.221C518.91 542.403 513.448 524.766 513.448 524.766Z" fill="#3B4262"></path>
    </g>
    <g id="05fdd5f7" clip-path="url(#1061bf9d)">
      <path id="67f24cf3" d="M200 651C255.228 651 300 603.542 300 545C300 486.458 255.228 439 200 439C144.772 439 100 486.458 100 545C100 603.542 144.772 651 200 651Z" fill="#834FE3"></path>
      <path id="72274682" d="M200 614C241.421 614 275 580.421 275 539C275 497.579 241.421 464 200 464C158.579 464 125 497.579 125 539C125 580.421 158.579 614 200 614Z" fill="#C4C4C4"></path>
      <path id="b1605a3a" d="M200 622C241.421 622 275 588.421 275 547C275 505.579 241.421 472 200 472C158.579 472 125 505.579 125 547C125 588.421 158.579 622 200 622Z" fill="white"></path>
      <path id="140194dc" d="M200 626.5C248.325 626.5 287.5 587.325 287.5 539C287.5 490.675 248.325 451.5 200 451.5C151.675 451.5 112.5 490.675 112.5 539C112.5 587.325 151.675 626.5 200 626.5Z" stroke="#8C5DE5" stroke-width="25"></path>
      <path id="ce1f23ea" d="M221.694 506.445C225.589 504.112 229.323 503.607 232.206 505.023C238.671 508.197 237.735 520.009 235.089 525.127C233.596 528.017 230.949 530.129 227.215 531.412C225.768 535.844 223.736 539.653 221.142 542.803C222.861 544.191 225.03 544.95 227.27 544.946H227.378L231.021 541.468C231.939 540.593 233.427 540.591 234.344 541.468C235.26 542.343 235.26 543.763 234.344 544.638L234.021 544.946H234.755C236.052 544.946 237.104 545.951 237.104 547.19C237.104 548.428 236.052 549.432 234.755 549.432H234.021L234.344 549.74C235.26 550.615 235.26 552.036 234.344 552.912C233.885 553.35 233.284 553.569 232.684 553.569C232.082 553.569 231.481 553.35 231.022 552.912L227.377 549.432H227.268C223.85 549.437 220.543 548.254 217.95 546.099C217.45 546.539 216.934 546.96 216.402 547.363C211.899 550.769 206.396 552.749 199.963 553.292C200.783 555.682 200.926 558.241 200.376 560.702L200.352 560.807L203.157 565.077C203.496 565.594 203.612 566.219 203.479 566.817C203.346 567.415 202.975 567.939 202.446 568.275C202.067 568.515 201.624 568.643 201.171 568.644C200.773 568.644 200.382 568.546 200.034 568.36C199.686 568.174 199.392 567.905 199.18 567.58L198.931 567.202L198.774 567.908C198.663 568.421 198.373 568.881 197.953 569.213C197.533 569.545 197.009 569.727 196.467 569.73C196.297 569.73 196.127 569.712 195.961 569.676C195.345 569.541 194.81 569.175 194.471 568.66C194.133 568.144 194.019 567.52 194.154 566.923L194.311 566.217L193.925 566.461C193.664 566.625 193.371 566.737 193.065 566.791C192.759 566.845 192.444 566.84 192.14 566.775C191.836 566.71 191.548 566.587 191.293 566.414C191.039 566.24 190.822 566.02 190.657 565.765C190.318 565.248 190.203 564.623 190.336 564.025C190.469 563.427 190.84 562.904 191.369 562.568L195.732 559.823L195.756 559.718C196.231 557.587 195.927 555.363 194.896 553.425C192.96 553.37 191.028 553.214 189.109 552.958C183.458 552.218 180.253 554.63 179.405 555.386C172.749 561.328 171.46 571.826 171.448 571.933C171.383 572.495 171.106 573.015 170.67 573.393C170.234 573.771 169.669 573.981 169.084 573.982C168.695 573.982 168.313 573.89 167.97 573.713C167.628 573.537 167.335 573.282 167.117 572.971C167.012 572.819 164.507 569.198 163.408 564.087C161.916 557.145 163.695 550.779 168.554 545.673C171.435 542.659 175.063 540.404 179.095 539.122L178.604 539.246C177.329 538.672 175.939 538.374 174.533 538.375H174.424L170.766 541.855C170.322 542.277 169.723 542.513 169.099 542.512C168.496 542.512 167.893 542.292 167.432 541.855C167.213 541.648 167.04 541.402 166.921 541.129C166.802 540.857 166.741 540.564 166.741 540.269C166.741 539.973 166.802 539.681 166.921 539.408C167.04 539.136 167.213 538.889 167.432 538.683L167.755 538.375H167.02C165.717 538.375 164.662 537.371 164.662 536.132C164.662 534.893 165.718 533.89 167.02 533.89H167.755L167.432 533.582C167.213 533.376 167.039 533.129 166.921 532.856C166.802 532.584 166.741 532.291 166.741 531.995C166.741 531.7 166.802 531.407 166.921 531.134C167.039 530.862 167.213 530.615 167.432 530.409C168.353 529.534 169.845 529.534 170.766 530.409L174.424 533.889H174.533C176.489 533.885 178.425 534.268 180.222 535.016C182.019 535.764 183.639 536.86 184.981 538.236L184.719 537.976C186.868 537.769 189.035 537.806 191.176 538.087C197.142 538.868 202.021 538.066 205.788 535.693C203.665 533.149 202.511 529.978 202.519 526.709V526.602L198.914 523.002C198.477 522.56 198.234 521.972 198.234 521.361C198.234 520.75 198.477 520.163 198.914 519.721C199.127 519.506 199.382 519.335 199.664 519.218C199.947 519.102 200.251 519.041 200.558 519.041C200.865 519.041 201.169 519.102 201.452 519.218C201.734 519.335 201.989 519.506 202.202 519.721L202.521 520.039V519.315C202.521 518.033 203.561 516.994 204.845 516.994C206.128 516.994 207.169 518.033 207.169 519.315V520.038L207.489 519.721C207.701 519.506 207.956 519.335 208.239 519.218C208.521 519.102 208.825 519.041 209.133 519.041C209.44 519.041 209.744 519.102 210.026 519.218C210.309 519.335 210.564 519.506 210.776 519.721C212.159 521.101 211.162 522.618 210.776 523.002L207.169 526.602V526.708C207.169 528.899 207.935 530.993 209.306 532.656C211.009 530.689 212.348 528.213 213.317 525.236C212.609 523.34 211.507 518.851 214.316 513.759C215.787 511.093 218.614 508.291 221.694 506.445Z" fill="#3B4262"></path>
    </g>
    <g id="6f0e05ad" clip-path="url(#38efaf47)">
      <path id="57b42e8c" d="M100 391C155.228 391 200 343.542 200 285C200 226.458 155.228 179 100 179C44.7715 179 0 226.458 0 285C0 343.542 44.7715 391 100 391Z" fill="#118899"></path>
      <path id="7d1daff8" d="M100 354C141.421 354 175 320.421 175 279C175 237.579 141.421 204 100 204C58.5786 204 25 237.579 25 279C25 320.421 58.5786 354 100 354Z" fill="#C4C4C4"></path>
      <path id="d6c4a195" d="M100 362C141.421 362 175 328.421 175 287C175 245.579 141.421 212 100 212C58.5786 212 25 245.579 25 287C25 328.421 58.5786 362 100 362Z" fill="white"></path>
      <path id="ab3da008" d="M100 366.5C148.325 366.5 187.5 327.325 187.5 279C187.5 230.675 148.325 191.5 100 191.5C51.6751 191.5 12.5 230.675 12.5 279C12.5 327.325 51.6751 366.5 100 366.5Z" stroke="#52BED1" stroke-width="25"></path>
      <path id="73d35545" d="M125.85 282.016L124.815 280.981C122.34 278.51 118.295 277.973 115.275 279.706L108.824 283.387L110.168 253.902C110.168 251.43 108.154 249.418 105.676 249.418C105.141 249.418 104.626 249.513 104.148 249.685L104.309 248.102C104.309 245.603 102.263 243.569 99.7516 243.569C97.4284 243.569 95.4808 245.308 95.2348 247.539L91.0948 272.51C91.0408 272.849 90.4515 272.814 90.3891 272.6L85.4991 252.581C85.2327 251.67 84.6796 250.87 83.9222 250.299C83.1648 249.729 82.2438 249.42 81.2967 249.418C79.9551 249.418 78.7084 250.021 77.8732 251.072C77.4629 251.586 77.175 252.187 77.0315 252.83C76.888 253.472 76.8926 254.139 77.0451 254.779L77.9955 258.81C77.4534 258.768 76.9084 258.837 76.3936 259.012C75.4598 259.321 74.666 259.952 74.1545 260.794C73.643 261.636 73.4473 262.633 73.6024 263.607L76.48 280.125C76.48 286.641 77.6236 291.464 78.5848 294.361C79.1336 296.027 79.412 297.77 79.4092 299.524C79.4092 301.07 79.1944 302.608 78.7684 304.092L76.5364 311.893C76.4116 312.333 76.5004 312.807 76.774 313.174C77.0524 313.54 77.4844 313.756 77.944 313.756H104.308C104.54 313.756 104.768 313.702 104.975 313.597C105.181 313.491 105.36 313.338 105.495 313.15C105.631 312.962 105.721 312.745 105.756 312.515C105.792 312.286 105.773 312.051 105.7 311.83C105.684 311.793 104.46 308.017 105.62 302.881C107.09 301.689 112.236 297.511 114.084 295.826C117.14 293.041 125.51 284.433 125.865 284.067C126.133 283.792 126.282 283.422 126.279 283.038C126.276 282.654 126.122 282.287 125.85 282.016Z" fill="#3B4262"></path>
    </g>
  </g>
  <defs>
    <clipPath id="4f2cc466">
      <rect width="200" height="212" fill="white" transform="translate(460 179)"></rect>
    </clipPath>
    <clipPath id="304f10d9">
      <rect width="200" height="212" fill="white" transform="translate(230)"></rect>
    </clipPath>
    <clipPath id="3a943fb5">
      <rect width="200" height="212" fill="white" transform="translate(388 439)"></rect>
    </clipPath>
    <clipPath id="1061bf9d">
      <rect width="200" height="212" fill="white" transform="translate(100 439)"></rect>
    </clipPath>
    <clipPath id="38efaf47">
      <rect width="200" height="212" fill="white" transform="translate(0 179)"></rect>
    </clipPath>
  </defs>
</svg>