<svg width="509" height="450" viewBox="0 0 509 450" fill="none" xmlns="http://www.w3.org/2000/svg">
  <g id="acd3176d">
    <g id="06eca029" clip-path="url(#cb125e53)">
      <path id="2d42099d" opacity="0.2" d="M396.5 95.5H109.574C112.693 95.5 161.99 180.167 257.466 349.5L396.5 95.5Z" stroke="black" stroke-width="15"></path>
    </g>
    <g id="73f79263" clip-path="url(#1a28325d)">
      <path id="1ccb466a" d="M258 450C313.228 450 358 402.542 358 344C358 285.458 313.228 238 258 238C202.772 238 158 285.458 158 344C158 402.542 202.772 450 258 450Z" fill="#DC2E4E"></path>
      <path id="fd3a790b" d="M258 413C299.421 413 333 379.421 333 338C333 296.579 299.421 263 258 263C216.579 263 183 296.579 183 338C183 379.421 216.579 413 258 413Z" fill="#C4C4C4"></path>
      <path id="6fe26728" d="M258 421C299.421 421 333 387.421 333 346C333 304.579 299.421 271 258 271C216.579 271 183 304.579 183 346C183 387.421 216.579 421 258 421Z" fill="white"></path>
      <path id="b749c918" d="M258 425.5C306.325 425.5 345.5 386.325 345.5 338C345.5 289.675 306.325 250.5 258 250.5C209.675 250.5 170.5 289.675 170.5 338C170.5 386.325 209.675 425.5 258 425.5Z" stroke="#DD405D" stroke-width="25"></path>
      <path id="dc945f27" d="M283.448 323.766C282.672 313.983 271.686 314.983 271.686 314.983C267.049 306.808 259.805 312.729 259.805 312.729C254.24 304.718 247.263 312.142 247.263 312.142C235.231 310.844 235.698 320.68 235.698 320.68C235.415 323.807 237.393 333.48 237.393 333.48C235.608 327.904 231.738 332.532 231.738 332.532C226.977 339.877 230.56 343.897 230.56 343.897C237 351.444 250.725 360.503 250.725 360.503C255.694 363.35 253.592 365.888 253.592 365.888L283.651 360.922L284.34 355.221C288.91 341.403 283.448 323.766 283.448 323.766Z" fill="#3B4262"></path>
    </g>
    <g id="f4e8390c" clip-path="url(#18c4d229)">
      <path id="3706da46" d="M100 212C155.228 212 200 164.542 200 106C200 47.4578 155.228 0 100 0C44.7715 0 0 47.4578 0 106C0 164.542 44.7715 212 100 212Z" fill="#4865F4"></path>
      <path id="00b4d47a" d="M100 175C141.421 175 175 141.421 175 100C175 58.5786 141.421 25 100 25C58.5786 25 25 58.5786 25 100C25 141.421 58.5786 175 100 175Z" fill="#C4C4C4"></path>
      <path id="7fea26b5" d="M100 183C141.421 183 175 149.421 175 108C175 66.5786 141.421 33 100 33C58.5786 33 25 66.5786 25 108C25 149.421 58.5786 183 100 183Z" fill="white"></path>
      <path id="59b706a1" d="M100 187.5C148.325 187.5 187.5 148.325 187.5 100C187.5 51.6751 148.325 12.5 100 12.5C51.6751 12.5 12.5 51.6751 12.5 100C12.5 148.325 51.6751 187.5 100 187.5Z" stroke="#5671F5" stroke-width="25"></path>
      <path id="fd2c903f" d="M127.742 78.2385C127.271 78.0533 126.765 77.972 126.259 78.0002C125.573 78.0484 125.02 78.3264 124.691 78.7824C122.76 81.4877 121.176 86.596 119.9 90.702C119.315 92.5998 118.528 95.1401 117.959 96.3459C117.366 92.968 118.036 80.5935 118.296 75.8281L118.3 75.7511C118.481 72.4406 118.505 71.8593 118.466 71.6042C118.18 69.7883 117.451 68.5957 116.3 68.0626C115.137 67.5211 113.627 67.7618 111.999 68.7401C111.184 69.2335 110.957 70.9255 110.258 78.5959L110.255 78.6296C109.87 82.8439 108.982 92.548 107.889 94.1654C106.658 91.903 104.962 79.0568 104.23 73.4959C103.719 69.6018 103.42 67.3659 103.219 66.6908C102.797 65.2756 101.015 64.0722 99.2514 64.0048C97.7824 63.9326 96.5783 64.6787 96.0028 65.976C94.9263 67.1733 95.3068 71.1409 96.4964 80.5394C97.0623 85.0136 98.2303 94.252 97.4958 95.2893C96.028 95.1293 93.5103 89.3422 90.0125 78.0821C89.0299 74.9292 88.7265 73.9809 88.4255 73.5657C87.8307 72.1193 85.8102 71.0037 83.9993 71.1301C83.8469 71.1407 83.6953 71.1604 83.5453 71.189C82.5977 71.3768 80.434 72.2492 80.8963 76.2746C82.1727 81.8547 83.561 85.951 84.9071 89.9282L84.9348 90.0077C85.7404 92.3904 86.5026 94.6407 87.2106 97.1377C88.8782 103.034 88.2292 106.693 88.222 106.735C88.1666 107.11 88.0498 107.34 87.8752 107.421C87.8009 107.453 87.7213 107.471 87.6404 107.475C87.1106 107.511 86.3183 107.162 85.9101 106.933C84.9758 105.15 80.328 96.6516 76.1161 95.4723L75.9644 95.4277L75.8115 95.4422C74.2667 95.5878 73.1312 96.1714 72.4365 97.1763C71.3359 98.7647 71.7923 100.789 71.9019 101.196L71.9645 101.34C71.9982 101.401 75.3768 107.555 75.8994 110.418C76.3497 112.873 78.682 115.533 80.558 117.67L80.6351 117.758C81.2467 118.456 81.7741 119.061 82.1907 119.621C87.632 125.292 96.2363 130.062 96.3062 130.102C97.3802 130.893 97.9762 131.658 98.0401 132.316C98.0694 132.565 98.0003 132.816 97.8474 133.014L97.6608 133.209L98.8504 134.365L121.551 132.771L122.519 128.338C125.512 115.82 124.887 105.146 124.877 105.077C124.889 104.683 125.727 100.885 126.401 97.8165L126.421 97.7382C127.766 91.625 129.438 84.0196 129.759 81.1278C129.899 79.8908 129.107 78.7548 127.742 78.2385Z" fill="#3B4262"></path>
    </g>
    <g id="559ae6d4" clip-path="url(#8e67e517)">
      <path id="a173924a" d="M409 212C464.228 212 509 164.542 509 106C509 47.4578 464.228 0 409 0C353.772 0 309 47.4578 309 106C309 164.542 353.772 212 409 212Z" fill="#EC9E0E"></path>
      <path id="2fbeba1e" d="M409 175C450.421 175 484 141.421 484 100C484 58.5786 450.421 25 409 25C367.579 25 334 58.5786 334 100C334 141.421 367.579 175 409 175Z" fill="#C4C4C4"></path>
      <path id="a1ee7791" d="M409 183C450.421 183 484 149.421 484 108C484 66.5786 450.421 33 409 33C367.579 33 334 66.5786 334 108C334 149.421 367.579 183 409 183Z" fill="white"></path>
      <path id="69a1780d" d="M409 187.5C457.325 187.5 496.5 148.325 496.5 100C496.5 51.6751 457.325 12.5 409 12.5C360.675 12.5 321.5 51.6751 321.5 100C321.5 148.325 360.675 187.5 409 187.5Z" stroke="#ECA922" stroke-width="25"></path>
      <path id="ad955ec5" d="M394.984 96.0197L402.293 85.8636C399.255 85.3628 393.676 85.2517 389.108 89.7679C381.905 96.8874 378.987 112.266 378.379 115.989L396.685 134.083C399.981 133.803 414.571 131.878 428.632 117.983C428.78 117.682 432.206 115.182 429.405 112.414C428.068 111.093 425.857 111.118 424.491 112.467C423.796 113.155 422.715 113.164 422.035 112.491C421.354 111.819 421.364 110.75 422.059 110.063L427.027 105.152C429.551 102.658 427.172 98.4479 423.648 99.4593L419.581 102.9C418.839 103.54 417.733 103.43 417.123 102.731C416.492 102.011 416.627 100.917 417.346 100.302C431.553 87.9817 429.478 89.465 438.62 80.9974C442.035 78.1866 437.739 73.2166 434.374 76.0612L412.26 95.7155C411.617 96.2562 410.631 96.2671 409.999 95.6914C409.269 95.0674 409.252 94.1683 409.729 93.4586L425.153 69.76C427.407 66.7428 422.971 63.3912 420.595 66.4326L397.791 97.9567C397.242 98.7412 396.133 98.9222 395.378 98.3731C395.194 98.2464 395.037 98.0842 394.918 97.8962C394.798 97.7083 394.717 97.4983 394.68 97.2788C394.644 97.0594 394.652 96.8348 394.704 96.6185C394.757 96.4022 394.852 96.1986 394.986 96.0197H394.984Z" fill="#3B4262"></path>
    </g>
  </g>
  <defs>
    <clipPath id="cb125e53">
      <rect width="305" height="277" fill="white" transform="translate(105 88)"></rect>
    </clipPath>
    <clipPath id="1a28325d">
      <rect width="200" height="212" fill="white" transform="translate(158 238)"></rect>
    </clipPath>
    <clipPath id="18c4d229">
      <rect width="200" height="212" fill="white"></rect>
    </clipPath>
    <clipPath id="8e67e517">
      <rect width="200" height="212" fill="white" transform="translate(309)"></rect>
    </clipPath>
  </defs>
</svg>