<svg width="200" height="212" viewBox="0 0 200 212" fill="none" xmlns="http://www.w3.org/2000/svg">
<ellipse cx="100" cy="106" rx="100" ry="106" fill="#834FE3"/>
<circle cx="100" cy="100" r="75" fill="#C4C4C4"/>
<circle cx="100" cy="108" r="75" fill="white"/>
<circle cx="100" cy="100" r="87.5" stroke="#8C5DE5" stroke-width="25"/>
<path d="M121.694 67.4453C125.589 65.112 129.323 64.6068 132.206 66.0232C138.671 69.1965 137.735 81.009 135.089 86.1272C133.596 89.017 130.949 91.1287 127.215 92.412C125.768 96.8442 123.736 100.653 121.142 103.803C122.861 105.191 125.03 105.95 127.27 105.946H127.378L131.021 102.468C131.939 101.593 133.427 101.591 134.344 102.468C135.26 103.343 135.26 104.763 134.344 105.638L134.021 105.946H134.755C136.052 105.946 137.104 106.951 137.104 108.19C137.104 109.428 136.052 110.432 134.755 110.432H134.021L134.344 110.74C135.26 111.615 135.26 113.036 134.344 113.912C133.885 114.35 133.284 114.569 132.684 114.569C132.082 114.569 131.481 114.35 131.022 113.912L127.377 110.432H127.268C123.85 110.437 120.543 109.254 117.95 107.099C117.45 107.539 116.934 107.96 116.402 108.363C111.899 111.769 106.396 113.749 99.9626 114.292C100.783 116.682 100.926 119.241 100.376 121.702L100.352 121.807L103.157 126.077C103.496 126.594 103.612 127.219 103.479 127.817C103.346 128.415 102.975 128.939 102.446 129.275C102.067 129.515 101.624 129.643 101.171 129.644C100.773 129.644 100.382 129.546 100.034 129.36C99.6856 129.174 99.3918 128.905 99.1797 128.58L98.9312 128.202L98.7743 128.908C98.663 129.421 98.3732 129.881 97.9533 130.213C97.5334 130.545 97.0087 130.727 96.4666 130.73C96.2966 130.73 96.1271 130.712 95.9611 130.676C95.3452 130.541 94.8096 130.175 94.4711 129.66C94.1326 129.144 94.0186 128.52 94.154 127.923L94.3109 127.217L93.9248 127.461C93.6637 127.625 93.3714 127.737 93.065 127.791C92.7586 127.845 92.4441 127.84 92.14 127.775C91.8358 127.71 91.5481 127.587 91.2934 127.414C91.0388 127.24 90.8224 127.02 90.6568 126.765C90.318 126.248 90.2027 125.623 90.3359 125.025C90.469 124.427 90.8399 123.904 91.3686 123.568L95.7319 120.823L95.7561 120.718C96.2309 118.587 95.9269 116.363 94.8959 114.425C92.9597 114.37 91.028 114.214 89.1091 113.958C83.4585 113.218 80.2533 115.63 79.4052 116.386C72.7486 122.328 71.4602 132.826 71.4481 132.933C71.383 133.495 71.106 134.015 70.6699 134.393C70.2339 134.771 69.6693 134.981 69.0837 134.982C68.6954 134.982 68.3132 134.89 67.9704 134.713C67.6276 134.537 67.3347 134.282 67.1173 133.971C67.0124 133.819 64.5068 130.198 63.4078 125.087C61.9156 118.145 63.6949 111.779 68.5541 106.673C71.4351 103.659 75.063 101.404 79.0952 100.122L78.6042 100.246C77.3291 99.6718 75.9394 99.3744 74.5328 99.3747H74.4242L70.7665 102.855C70.3217 103.277 69.7228 103.513 69.0994 103.512C68.4962 103.512 67.893 103.292 67.4322 102.855C67.2135 102.648 67.0397 102.402 66.9211 102.129C66.8024 101.857 66.7413 101.564 66.7413 101.269C66.7413 100.973 66.8024 100.681 66.9211 100.408C67.0397 100.136 67.2135 99.8891 67.4322 99.6827L67.7555 99.3747H67.0196C65.7168 99.3747 64.6624 98.3713 64.6624 97.1323C64.6624 95.8933 65.718 94.89 67.0196 94.89H67.7555L67.4322 94.582C67.2133 94.3755 67.0394 94.1287 66.9206 93.8562C66.8019 93.5838 66.7407 93.291 66.7407 92.9953C66.7407 92.6996 66.8019 92.4069 66.9206 92.1344C67.0394 91.8619 67.2133 91.6152 67.4322 91.4087C68.3526 90.5337 69.8449 90.5337 70.7665 91.4087L74.4242 94.8888H74.5328C76.489 94.8848 78.4253 95.2684 80.2223 96.016C82.0193 96.7637 83.6388 97.8595 84.9809 99.2358L84.7192 98.9757C86.8684 98.7685 89.0353 98.8057 91.1756 99.0865C97.1422 99.8682 102.021 99.0655 105.788 96.6925C103.665 94.1492 102.511 90.9776 102.519 87.7092V87.6018L98.9143 84.0015C98.4775 83.5599 98.2337 82.9723 98.2337 82.3612C98.2337 81.75 98.4775 81.1625 98.9143 80.7208C99.1266 80.5061 99.3817 80.3351 99.6642 80.2184C99.9467 80.1016 100.251 80.0414 100.558 80.0414C100.865 80.0414 101.169 80.1016 101.452 80.2184C101.734 80.3351 101.989 80.5061 102.202 80.7208L102.521 81.0393V80.3148C102.521 79.0327 103.561 77.9943 104.845 77.9943C106.128 77.9943 107.169 79.0327 107.169 80.3148V81.0382L107.489 80.7208C107.701 80.5061 107.956 80.3351 108.239 80.2184C108.521 80.1016 108.825 80.0414 109.133 80.0414C109.44 80.0414 109.744 80.1016 110.026 80.2184C110.309 80.3351 110.564 80.5061 110.776 80.7208C112.159 82.101 111.162 83.6177 110.776 84.0015L107.169 87.6018V87.708C107.169 89.899 107.935 91.9932 109.306 93.6557C111.009 91.6887 112.348 89.213 113.317 86.2357C112.609 84.3398 111.507 79.8505 114.316 74.7592C115.787 72.0933 118.615 69.291 121.695 67.4453H121.694Z" fill="#3B4262"/>
</svg>
