<svg width="200" height="212" viewBox="0 0 200 212" fill="none" xmlns="http://www.w3.org/2000/svg">
<ellipse cx="100" cy="106" rx="100" ry="106" fill="#4865F4"/>
<circle cx="100" cy="100" r="75" fill="#C4C4C4"/>
<circle cx="100" cy="108" r="75" fill="white"/>
<circle cx="100" cy="100" r="87.5" stroke="#5671F5" stroke-width="25"/>
<path d="M127.742 78.2385C127.271 78.0533 126.765 77.972 126.259 78.0002C125.573 78.0484 125.02 78.3264 124.691 78.7824C122.76 81.4877 121.176 86.596 119.9 90.702C119.315 92.5998 118.528 95.1401 117.959 96.3459C117.366 92.968 118.036 80.5935 118.296 75.8281L118.3 75.7511C118.481 72.4406 118.505 71.8593 118.466 71.6042C118.18 69.7883 117.451 68.5957 116.3 68.0626C115.137 67.5211 113.627 67.7618 111.999 68.7401C111.184 69.2335 110.957 70.9255 110.258 78.5959L110.255 78.6296C109.87 82.8439 108.982 92.548 107.889 94.1654C106.658 91.903 104.962 79.0568 104.23 73.4959C103.719 69.6018 103.42 67.3659 103.219 66.6908C102.797 65.2756 101.015 64.0722 99.2514 64.0048C97.7824 63.9326 96.5783 64.6787 96.0028 65.976C94.9263 67.1733 95.3068 71.1409 96.4964 80.5394C97.0623 85.0136 98.2303 94.252 97.4958 95.2893C96.028 95.1293 93.5103 89.3422 90.0125 78.0821C89.0299 74.9292 88.7265 73.9809 88.4255 73.5657C87.8307 72.1193 85.8102 71.0037 83.9993 71.1301C83.8469 71.1407 83.6953 71.1604 83.5453 71.189C82.5977 71.3768 80.434 72.2492 80.8963 76.2746C82.1727 81.8547 83.561 85.951 84.9071 89.9282L84.9348 90.0077C85.7404 92.3904 86.5026 94.6407 87.2106 97.1377C88.8782 103.034 88.2292 106.693 88.222 106.735C88.1666 107.11 88.0498 107.34 87.8752 107.421C87.8009 107.453 87.7213 107.471 87.6404 107.475C87.1106 107.511 86.3183 107.162 85.9101 106.933C84.9758 105.15 80.328 96.6516 76.1161 95.4723L75.9644 95.4277L75.8115 95.4422C74.2667 95.5878 73.1312 96.1714 72.4365 97.1763C71.3359 98.7647 71.7923 100.789 71.9019 101.196L71.9645 101.34C71.9982 101.401 75.3768 107.555 75.8994 110.418C76.3497 112.873 78.682 115.533 80.558 117.67L80.6351 117.758C81.2467 118.456 81.7741 119.061 82.1907 119.621C87.632 125.292 96.2363 130.062 96.3062 130.102C97.3802 130.893 97.9762 131.658 98.0401 132.316C98.0694 132.565 98.0003 132.816 97.8474 133.014L97.6608 133.209L98.8504 134.365L121.551 132.771L122.519 128.338C125.512 115.82 124.887 105.146 124.877 105.077C124.889 104.683 125.727 100.885 126.401 97.8165L126.421 97.7382C127.766 91.625 129.438 84.0196 129.759 81.1278C129.899 79.8908 129.107 78.7548 127.742 78.2385V78.2385Z" fill="#3B4262"/>
</svg>
