<svg width="200" height="212" viewBox="0 0 200 212" fill="none" xmlns="http://www.w3.org/2000/svg">
<ellipse cx="100" cy="106" rx="100" ry="106" fill="#DC2E4E"/>
<circle cx="100" cy="100" r="75" fill="#C4C4C4"/>
<circle cx="100" cy="108" r="75" fill="white"/>
<circle cx="100" cy="100" r="87.5" stroke="#DD405D" stroke-width="25"/>
<path d="M125.448 85.7658C124.672 75.9832 113.686 76.9825 113.686 76.9825C109.049 68.8081 101.805 74.7289 101.805 74.7289C96.2397 66.7177 89.2628 74.1417 89.2628 74.1417C77.2314 72.8439 77.6978 82.6798 77.6978 82.6798C77.415 85.8069 79.3931 95.4796 79.3931 95.4796C77.6084 89.9044 73.7381 94.5323 73.7381 94.5323C68.9773 101.877 72.56 105.897 72.56 105.897C79.0004 113.444 92.7246 122.503 92.7246 122.503C97.6945 125.35 95.592 127.888 95.592 127.888L125.651 122.922L126.34 117.221C130.91 103.403 125.448 85.7658 125.448 85.7658V85.7658Z" fill="#3B4262"/>
</svg>
