<svg width="200" height="212" viewBox="0 0 200 212" fill="none" xmlns="http://www.w3.org/2000/svg">
<ellipse cx="100" cy="106" rx="100" ry="106" fill="#EC9E0E"/>
<circle cx="100" cy="100" r="75" fill="#C4C4C4"/>
<circle cx="100" cy="108" r="75" fill="white"/>
<circle cx="100" cy="100" r="87.5" stroke="#ECA922" stroke-width="25"/>
<path d="M85.9844 96.0197L93.2931 85.8636C90.2551 85.3628 84.6763 85.2517 80.1077 89.7679C72.9048 96.8874 69.9871 112.266 69.3793 115.989L87.6851 134.083C90.9808 133.803 105.571 131.878 119.632 117.983C119.78 117.682 123.206 115.182 120.405 112.414C119.068 111.093 116.857 111.118 115.491 112.467C114.796 113.155 113.715 113.164 113.035 112.491C112.354 111.819 112.364 110.75 113.059 110.063L118.027 105.152C120.551 102.658 118.172 98.4479 114.648 99.4593L110.581 102.9C109.839 103.54 108.733 103.43 108.123 102.731C107.492 102.011 107.627 100.917 108.346 100.302C122.553 87.9817 120.478 89.465 129.62 80.9974C133.035 78.1866 128.739 73.2166 125.374 76.0612L103.26 95.7155C102.617 96.2562 101.631 96.2671 100.999 95.6914C100.269 95.0674 100.252 94.1683 100.729 93.4586L116.153 69.76C118.407 66.7428 113.971 63.3912 111.595 66.4326L88.7914 97.9567C88.2419 98.7412 87.1332 98.9222 86.3782 98.3731C86.1941 98.2464 86.0374 98.0842 85.9175 97.8962C85.7977 97.7083 85.717 97.4983 85.6804 97.2788C85.6438 97.0594 85.6519 96.8348 85.7044 96.6185C85.7568 96.4022 85.8524 96.1986 85.9856 96.0197H85.9844Z" fill="#3B4262"/>
</svg>
