<svg width="200" height="212" viewBox="0 0 200 212" fill="none" xmlns="http://www.w3.org/2000/svg">
<ellipse cx="100" cy="106" rx="100" ry="106" fill="#118899"/>
<circle cx="100" cy="100" r="75" fill="#C4C4C4"/>
<circle cx="100" cy="108" r="75" fill="white"/>
<circle cx="100" cy="100" r="87.5" stroke="#52BED1" stroke-width="25"/>
<path d="M125.85 103.016L124.815 101.981C122.34 99.5096 118.295 98.9729 115.275 100.706L108.824 104.387L110.168 74.9015C110.168 72.4297 108.154 70.4177 105.676 70.4177C105.141 70.4177 104.626 70.5127 104.148 70.6848L104.309 69.1024C104.309 66.6029 102.263 64.5692 99.7516 64.5692C97.4284 64.5692 95.4808 66.3081 95.2348 68.5392L91.0948 93.5095C91.0408 93.8489 90.4516 93.814 90.3892 93.5998L85.4992 73.5814C85.2328 72.67 84.6796 71.8695 83.9222 71.2993C83.1648 70.7291 82.2439 70.4198 81.2968 70.4177C79.9552 70.4177 78.7084 71.0206 77.8732 72.0723C77.4629 72.5861 77.175 73.1871 77.0315 73.8295C76.888 74.4718 76.8927 75.1385 77.0452 75.7788L77.9956 79.8101C77.4535 79.7678 76.9084 79.8366 76.3936 80.0123C75.4598 80.3206 74.666 80.9523 74.1545 81.7943C73.643 82.6362 73.4473 83.6333 73.6024 84.6068L76.48 101.125C76.48 107.641 77.6236 112.464 78.5848 115.361C79.1336 117.027 79.412 118.77 79.4092 120.524C79.4092 122.07 79.1944 123.608 78.7684 125.092L76.5364 132.893C76.4116 133.333 76.5004 133.807 76.774 134.174C77.0524 134.54 77.4844 134.756 77.944 134.756H104.308C104.54 134.756 104.768 134.702 104.975 134.597C105.181 134.491 105.36 134.338 105.495 134.15C105.631 133.962 105.721 133.745 105.756 133.515C105.792 133.286 105.773 133.051 105.7 132.83C105.684 132.793 104.46 129.017 105.62 123.881C107.09 122.689 112.236 118.511 114.084 116.826C117.14 114.041 125.51 105.433 125.865 105.067C126.133 104.792 126.282 104.422 126.279 104.038C126.276 103.654 126.122 103.286 125.85 103.015V103.016Z" fill="#3B4262"/>
</svg>
